<mxfile host="app.diagrams.net" modified="2024-04-19T06:49:39.211Z" agent="Mozilla/5.0 (Windows NT 10.0; Win64; x64) AppleWebKit/537.36 (KHTML, like Gecko) Chrome/123.0.0.0 Safari/537.36 Edg/123.0.0.0" etag="R9kQGwka5HQqjLy9ezuR" version="24.2.2" type="device">
  <diagram id="rvKXNUmmIDt18tQLx-EP" name="Page-1">
    <mxGraphModel dx="2178" dy="759" grid="1" gridSize="10" guides="1" tooltips="1" connect="1" arrows="1" fold="1" page="1" pageScale="1" pageWidth="850" pageHeight="1100" math="0" shadow="0">
      <root>
        <mxCell id="0" />
        <mxCell id="1" parent="0" />
        <mxCell id="EQr21W7R5ZVl4X3dIZeW-3" value="" style="edgeStyle=orthogonalEdgeStyle;rounded=0;orthogonalLoop=1;jettySize=auto;html=1;" parent="1" source="EQr21W7R5ZVl4X3dIZeW-1" target="EQr21W7R5ZVl4X3dIZeW-2" edge="1">
          <mxGeometry relative="1" as="geometry" />
        </mxCell>
        <mxCell id="EQr21W7R5ZVl4X3dIZeW-1" value="&lt;font style=&quot;font-size: 20px;&quot;&gt;Start&lt;/font&gt;" style="ellipse;whiteSpace=wrap;html=1;fontFamily=Times New Roman;" parent="1" vertex="1">
          <mxGeometry x="350" y="10" width="120" height="80" as="geometry" />
        </mxCell>
        <mxCell id="EQr21W7R5ZVl4X3dIZeW-12" value="" style="edgeStyle=orthogonalEdgeStyle;rounded=0;orthogonalLoop=1;jettySize=auto;html=1;" parent="1" source="EQr21W7R5ZVl4X3dIZeW-2" target="EQr21W7R5ZVl4X3dIZeW-11" edge="1">
          <mxGeometry relative="1" as="geometry" />
        </mxCell>
        <mxCell id="EQr21W7R5ZVl4X3dIZeW-2" value="Initialize program&amp;nbsp;&amp;nbsp;" style="whiteSpace=wrap;html=1;fontFamily=Times New Roman;" parent="1" vertex="1">
          <mxGeometry x="350" y="120" width="120" height="60" as="geometry" />
        </mxCell>
        <mxCell id="EQr21W7R5ZVl4X3dIZeW-16" value="" style="edgeStyle=orthogonalEdgeStyle;rounded=0;orthogonalLoop=1;jettySize=auto;html=1;" parent="1" source="EQr21W7R5ZVl4X3dIZeW-11" target="EQr21W7R5ZVl4X3dIZeW-15" edge="1">
          <mxGeometry relative="1" as="geometry" />
        </mxCell>
        <mxCell id="EQr21W7R5ZVl4X3dIZeW-11" value="Display &lt;br&gt;Login Screen" style="whiteSpace=wrap;html=1;fontFamily=Times New Roman;" parent="1" vertex="1">
          <mxGeometry x="350" y="200" width="120" height="60" as="geometry" />
        </mxCell>
        <mxCell id="EQr21W7R5ZVl4X3dIZeW-18" value="" style="edgeStyle=orthogonalEdgeStyle;rounded=0;orthogonalLoop=1;jettySize=auto;html=1;" parent="1" source="EQr21W7R5ZVl4X3dIZeW-15" target="EQr21W7R5ZVl4X3dIZeW-17" edge="1">
          <mxGeometry relative="1" as="geometry">
            <Array as="points">
              <mxPoint x="410" y="410" />
              <mxPoint x="560" y="410" />
              <mxPoint x="560" y="450" />
            </Array>
          </mxGeometry>
        </mxCell>
        <mxCell id="EQr21W7R5ZVl4X3dIZeW-20" value="" style="edgeStyle=orthogonalEdgeStyle;rounded=0;orthogonalLoop=1;jettySize=auto;html=1;" parent="1" source="EQr21W7R5ZVl4X3dIZeW-15" target="EQr21W7R5ZVl4X3dIZeW-19" edge="1">
          <mxGeometry relative="1" as="geometry" />
        </mxCell>
        <mxCell id="EQr21W7R5ZVl4X3dIZeW-22" value="" style="edgeStyle=orthogonalEdgeStyle;rounded=0;orthogonalLoop=1;jettySize=auto;html=1;" parent="1" source="EQr21W7R5ZVl4X3dIZeW-15" target="EQr21W7R5ZVl4X3dIZeW-21" edge="1">
          <mxGeometry relative="1" as="geometry" />
        </mxCell>
        <mxCell id="ErSS763vBnddS_wtB-cu-8" style="edgeStyle=orthogonalEdgeStyle;rounded=0;orthogonalLoop=1;jettySize=auto;html=1;entryX=0.5;entryY=0;entryDx=0;entryDy=0;" parent="1" source="EQr21W7R5ZVl4X3dIZeW-15" target="GLSSM8lwYj0UyMztoxBY-44" edge="1">
          <mxGeometry relative="1" as="geometry" />
        </mxCell>
        <mxCell id="EQr21W7R5ZVl4X3dIZeW-15" value="Check for Login details" style="rhombus;whiteSpace=wrap;html=1;fontFamily=Times New Roman;" parent="1" vertex="1">
          <mxGeometry x="354.9" y="310" width="110" height="90" as="geometry" />
        </mxCell>
        <mxCell id="EQr21W7R5ZVl4X3dIZeW-26" value="" style="edgeStyle=orthogonalEdgeStyle;rounded=0;orthogonalLoop=1;jettySize=auto;html=1;" parent="1" source="EQr21W7R5ZVl4X3dIZeW-17" target="EQr21W7R5ZVl4X3dIZeW-25" edge="1">
          <mxGeometry relative="1" as="geometry" />
        </mxCell>
        <mxCell id="EQr21W7R5ZVl4X3dIZeW-17" value="Manager" style="whiteSpace=wrap;html=1;fontFamily=Times New Roman;" parent="1" vertex="1">
          <mxGeometry x="580" y="420" width="120" height="60" as="geometry" />
        </mxCell>
        <mxCell id="EQr21W7R5ZVl4X3dIZeW-29" value="" style="edgeStyle=orthogonalEdgeStyle;rounded=0;orthogonalLoop=1;jettySize=auto;html=1;" parent="1" source="EQr21W7R5ZVl4X3dIZeW-19" target="EQr21W7R5ZVl4X3dIZeW-28" edge="1">
          <mxGeometry relative="1" as="geometry" />
        </mxCell>
        <mxCell id="EQr21W7R5ZVl4X3dIZeW-19" value="Employee" style="whiteSpace=wrap;html=1;fontFamily=Times New Roman;" parent="1" vertex="1">
          <mxGeometry x="489.9" y="325" width="120" height="60" as="geometry" />
        </mxCell>
        <mxCell id="EQr21W7R5ZVl4X3dIZeW-24" value="" style="edgeStyle=orthogonalEdgeStyle;rounded=0;orthogonalLoop=1;jettySize=auto;html=1;" parent="1" source="EQr21W7R5ZVl4X3dIZeW-21" target="EQr21W7R5ZVl4X3dIZeW-23" edge="1">
          <mxGeometry relative="1" as="geometry" />
        </mxCell>
        <mxCell id="EQr21W7R5ZVl4X3dIZeW-21" value="HR" style="whiteSpace=wrap;html=1;fontFamily=Times New Roman;" parent="1" vertex="1">
          <mxGeometry x="209.89999999999998" y="325" width="120" height="60" as="geometry" />
        </mxCell>
        <mxCell id="GLSSM8lwYj0UyMztoxBY-4" value="" style="edgeStyle=orthogonalEdgeStyle;rounded=0;orthogonalLoop=1;jettySize=auto;html=1;" parent="1" source="EQr21W7R5ZVl4X3dIZeW-23" target="GLSSM8lwYj0UyMztoxBY-3" edge="1">
          <mxGeometry relative="1" as="geometry" />
        </mxCell>
        <mxCell id="EQr21W7R5ZVl4X3dIZeW-23" value="Display HR Main Screen" style="whiteSpace=wrap;html=1;fontFamily=Times New Roman;" parent="1" vertex="1">
          <mxGeometry x="209.89999999999998" y="420" width="120" height="60" as="geometry" />
        </mxCell>
        <mxCell id="GLSSM8lwYj0UyMztoxBY-9" value="" style="edgeStyle=orthogonalEdgeStyle;rounded=0;orthogonalLoop=1;jettySize=auto;html=1;" parent="1" source="EQr21W7R5ZVl4X3dIZeW-25" target="GLSSM8lwYj0UyMztoxBY-8" edge="1">
          <mxGeometry relative="1" as="geometry" />
        </mxCell>
        <mxCell id="EQr21W7R5ZVl4X3dIZeW-25" value="Display&lt;br&gt;Manager Main Screen" style="whiteSpace=wrap;html=1;fontFamily=Times New Roman;" parent="1" vertex="1">
          <mxGeometry x="580" y="510" width="120" height="60" as="geometry" />
        </mxCell>
        <mxCell id="GLSSM8lwYj0UyMztoxBY-6" value="" style="edgeStyle=orthogonalEdgeStyle;rounded=0;orthogonalLoop=1;jettySize=auto;html=1;" parent="1" source="EQr21W7R5ZVl4X3dIZeW-28" target="GLSSM8lwYj0UyMztoxBY-5" edge="1">
          <mxGeometry relative="1" as="geometry" />
        </mxCell>
        <mxCell id="EQr21W7R5ZVl4X3dIZeW-28" value="Display&lt;br&gt;Employee Main Screen" style="whiteSpace=wrap;html=1;fontFamily=Times New Roman;" parent="1" vertex="1">
          <mxGeometry x="640" y="325" width="120" height="60" as="geometry" />
        </mxCell>
        <mxCell id="GLSSM8lwYj0UyMztoxBY-12" value="" style="edgeStyle=orthogonalEdgeStyle;rounded=0;orthogonalLoop=1;jettySize=auto;html=1;" parent="1" source="GLSSM8lwYj0UyMztoxBY-3" target="GLSSM8lwYj0UyMztoxBY-11" edge="1">
          <mxGeometry relative="1" as="geometry" />
        </mxCell>
        <mxCell id="GLSSM8lwYj0UyMztoxBY-14" value="" style="edgeStyle=orthogonalEdgeStyle;rounded=0;orthogonalLoop=1;jettySize=auto;html=1;entryX=1;entryY=0.5;entryDx=0;entryDy=0;" parent="1" source="GLSSM8lwYj0UyMztoxBY-3" target="ErSS763vBnddS_wtB-cu-1" edge="1">
          <mxGeometry relative="1" as="geometry">
            <mxPoint x="69.90000000000009" y="450" as="targetPoint" />
          </mxGeometry>
        </mxCell>
        <mxCell id="GLSSM8lwYj0UyMztoxBY-16" value="" style="edgeStyle=orthogonalEdgeStyle;rounded=0;orthogonalLoop=1;jettySize=auto;html=1;" parent="1" source="GLSSM8lwYj0UyMztoxBY-3" target="GLSSM8lwYj0UyMztoxBY-15" edge="1">
          <mxGeometry relative="1" as="geometry" />
        </mxCell>
        <mxCell id="GLSSM8lwYj0UyMztoxBY-17" style="edgeStyle=orthogonalEdgeStyle;rounded=0;orthogonalLoop=1;jettySize=auto;html=1;exitX=0;exitY=1;exitDx=0;exitDy=0;" parent="1" source="GLSSM8lwYj0UyMztoxBY-3" edge="1">
          <mxGeometry relative="1" as="geometry">
            <mxPoint x="-0.1" y="520" as="targetPoint" />
            <Array as="points">
              <mxPoint x="114.9" y="490" />
              <mxPoint x="-0.1" y="490" />
              <mxPoint x="-0.1" y="520" />
            </Array>
          </mxGeometry>
        </mxCell>
        <mxCell id="ErSS763vBnddS_wtB-cu-14" style="edgeStyle=orthogonalEdgeStyle;rounded=0;orthogonalLoop=1;jettySize=auto;html=1;exitX=0;exitY=0;exitDx=0;exitDy=0;" parent="1" source="GLSSM8lwYj0UyMztoxBY-3" edge="1">
          <mxGeometry relative="1" as="geometry">
            <mxPoint x="-10" y="380" as="targetPoint" />
            <Array as="points">
              <mxPoint x="115" y="400" />
              <mxPoint x="-9" y="400" />
              <mxPoint x="-9" y="380" />
            </Array>
          </mxGeometry>
        </mxCell>
        <mxCell id="ozypkc_vYGgPimxKBf-H-10" style="edgeStyle=orthogonalEdgeStyle;rounded=0;orthogonalLoop=1;jettySize=auto;html=1;exitX=0;exitY=0;exitDx=0;exitDy=0;entryX=0.5;entryY=1;entryDx=0;entryDy=0;" edge="1" parent="1" source="GLSSM8lwYj0UyMztoxBY-3" target="ozypkc_vYGgPimxKBf-H-9">
          <mxGeometry relative="1" as="geometry">
            <Array as="points">
              <mxPoint x="115" y="400" />
              <mxPoint x="-140" y="400" />
            </Array>
          </mxGeometry>
        </mxCell>
        <mxCell id="ozypkc_vYGgPimxKBf-H-11" style="edgeStyle=orthogonalEdgeStyle;rounded=0;orthogonalLoop=1;jettySize=auto;html=1;exitX=0;exitY=1;exitDx=0;exitDy=0;" edge="1" parent="1" source="GLSSM8lwYj0UyMztoxBY-3" target="ozypkc_vYGgPimxKBf-H-8">
          <mxGeometry relative="1" as="geometry">
            <Array as="points">
              <mxPoint x="115" y="490" />
              <mxPoint x="-130" y="490" />
            </Array>
          </mxGeometry>
        </mxCell>
        <mxCell id="GLSSM8lwYj0UyMztoxBY-3" value="HR&lt;br&gt;feature" style="rhombus;whiteSpace=wrap;html=1;fontFamily=Times New Roman;" parent="1" vertex="1">
          <mxGeometry x="99.9" y="410" width="60" height="80" as="geometry" />
        </mxCell>
        <mxCell id="GLSSM8lwYj0UyMztoxBY-24" value="" style="edgeStyle=orthogonalEdgeStyle;rounded=0;orthogonalLoop=1;jettySize=auto;html=1;" parent="1" source="GLSSM8lwYj0UyMztoxBY-5" target="GLSSM8lwYj0UyMztoxBY-23" edge="1">
          <mxGeometry relative="1" as="geometry" />
        </mxCell>
        <mxCell id="ErSS763vBnddS_wtB-cu-17" style="edgeStyle=orthogonalEdgeStyle;rounded=0;orthogonalLoop=1;jettySize=auto;html=1;exitX=1;exitY=1;exitDx=0;exitDy=0;entryX=0.5;entryY=0;entryDx=0;entryDy=0;" parent="1" source="GLSSM8lwYj0UyMztoxBY-5" target="ErSS763vBnddS_wtB-cu-16" edge="1">
          <mxGeometry relative="1" as="geometry">
            <Array as="points">
              <mxPoint x="845" y="400" />
              <mxPoint x="965" y="400" />
            </Array>
          </mxGeometry>
        </mxCell>
        <mxCell id="GLSSM8lwYj0UyMztoxBY-5" value="Employee&lt;br&gt;Feature" style="rhombus;whiteSpace=wrap;html=1;fontFamily=Times New Roman;" parent="1" vertex="1">
          <mxGeometry x="785.0000000000001" y="315" width="80" height="80" as="geometry" />
        </mxCell>
        <mxCell id="GLSSM8lwYj0UyMztoxBY-30" value="" style="edgeStyle=orthogonalEdgeStyle;rounded=0;orthogonalLoop=1;jettySize=auto;html=1;entryX=0.5;entryY=0;entryDx=0;entryDy=0;" parent="1" source="GLSSM8lwYj0UyMztoxBY-8" target="GLSSM8lwYj0UyMztoxBY-29" edge="1">
          <mxGeometry relative="1" as="geometry">
            <mxPoint x="409.9526315789475" y="680" as="targetPoint" />
            <Array as="points">
              <mxPoint x="640" y="670" />
            </Array>
          </mxGeometry>
        </mxCell>
        <mxCell id="GLSSM8lwYj0UyMztoxBY-32" value="" style="edgeStyle=orthogonalEdgeStyle;rounded=0;orthogonalLoop=1;jettySize=auto;html=1;" parent="1" source="GLSSM8lwYj0UyMztoxBY-8" target="GLSSM8lwYj0UyMztoxBY-31" edge="1">
          <mxGeometry relative="1" as="geometry" />
        </mxCell>
        <mxCell id="GLSSM8lwYj0UyMztoxBY-34" value="" style="edgeStyle=orthogonalEdgeStyle;rounded=0;orthogonalLoop=1;jettySize=auto;html=1;" parent="1" source="GLSSM8lwYj0UyMztoxBY-8" target="GLSSM8lwYj0UyMztoxBY-33" edge="1">
          <mxGeometry relative="1" as="geometry" />
        </mxCell>
        <mxCell id="ErSS763vBnddS_wtB-cu-19" style="edgeStyle=orthogonalEdgeStyle;rounded=0;orthogonalLoop=1;jettySize=auto;html=1;exitX=1;exitY=1;exitDx=0;exitDy=0;entryX=0.5;entryY=0;entryDx=0;entryDy=0;" parent="1" source="GLSSM8lwYj0UyMztoxBY-8" target="ErSS763vBnddS_wtB-cu-18" edge="1">
          <mxGeometry relative="1" as="geometry">
            <Array as="points">
              <mxPoint x="660" y="680" />
              <mxPoint x="800" y="680" />
            </Array>
          </mxGeometry>
        </mxCell>
        <mxCell id="ozypkc_vYGgPimxKBf-H-2" style="edgeStyle=orthogonalEdgeStyle;rounded=0;orthogonalLoop=1;jettySize=auto;html=1;exitX=0;exitY=1;exitDx=0;exitDy=0;entryX=0.5;entryY=0;entryDx=0;entryDy=0;" edge="1" parent="1" source="GLSSM8lwYj0UyMztoxBY-8" target="ozypkc_vYGgPimxKBf-H-1">
          <mxGeometry relative="1" as="geometry">
            <Array as="points">
              <mxPoint x="620" y="680" />
              <mxPoint x="480" y="680" />
            </Array>
          </mxGeometry>
        </mxCell>
        <mxCell id="ozypkc_vYGgPimxKBf-H-4" style="edgeStyle=orthogonalEdgeStyle;rounded=0;orthogonalLoop=1;jettySize=auto;html=1;exitX=1;exitY=0;exitDx=0;exitDy=0;entryX=0;entryY=0.5;entryDx=0;entryDy=0;" edge="1" parent="1" source="GLSSM8lwYj0UyMztoxBY-8" target="ozypkc_vYGgPimxKBf-H-3">
          <mxGeometry relative="1" as="geometry">
            <Array as="points">
              <mxPoint x="710" y="610" />
              <mxPoint x="710" y="550" />
            </Array>
          </mxGeometry>
        </mxCell>
        <mxCell id="GLSSM8lwYj0UyMztoxBY-8" value="Manager&lt;br&gt;Features" style="rhombus;whiteSpace=wrap;html=1;fontFamily=Times New Roman;" parent="1" vertex="1">
          <mxGeometry x="600" y="590" width="80" height="80" as="geometry" />
        </mxCell>
        <mxCell id="GLSSM8lwYj0UyMztoxBY-11" value="Aprrove Bonus,&lt;br&gt;Resignation,&lt;br&gt;Promotion,&lt;br&gt;Review" style="whiteSpace=wrap;html=1;fontFamily=Times New Roman;" parent="1" vertex="1">
          <mxGeometry x="69.9" y="520" width="120.1" height="60" as="geometry" />
        </mxCell>
        <mxCell id="GLSSM8lwYj0UyMztoxBY-15" value="&lt;div&gt;Create Survey&lt;/div&gt;" style="whiteSpace=wrap;html=1;fontFamily=Times New Roman;" parent="1" vertex="1">
          <mxGeometry x="69.9" y="325" width="120" height="60" as="geometry" />
        </mxCell>
        <mxCell id="GLSSM8lwYj0UyMztoxBY-20" value="Check Employee hours&lt;br&gt;attended" style="rounded=0;whiteSpace=wrap;html=1;" parent="1" vertex="1">
          <mxGeometry x="-60.099999999999994" y="520" width="120" height="60" as="geometry" />
        </mxCell>
        <mxCell id="GLSSM8lwYj0UyMztoxBY-23" value="Submit Survey,&lt;br&gt;Performance Review, Complaints" style="whiteSpace=wrap;html=1;fontFamily=Times New Roman;" parent="1" vertex="1">
          <mxGeometry x="765.0000000000001" y="420" width="120" height="60" as="geometry" />
        </mxCell>
        <mxCell id="GLSSM8lwYj0UyMztoxBY-25" value="Applying for&lt;br&gt;vacation/sick or resignation" style="whiteSpace=wrap;html=1;fontFamily=Times New Roman;" parent="1" vertex="1">
          <mxGeometry x="905" y="325" width="120" height="60" as="geometry" />
        </mxCell>
        <mxCell id="GLSSM8lwYj0UyMztoxBY-29" value="Assign Promotion" style="whiteSpace=wrap;html=1;fontFamily=Times New Roman;" parent="1" vertex="1">
          <mxGeometry x="580" y="700" width="120" height="60" as="geometry" />
        </mxCell>
        <mxCell id="GLSSM8lwYj0UyMztoxBY-31" value="Approve for&amp;nbsp;&lt;br&gt;vacation/sick,&lt;br&gt;resignation, performance review" style="whiteSpace=wrap;html=1;fontFamily=Times New Roman;" parent="1" vertex="1">
          <mxGeometry x="740" y="600" width="120" height="60" as="geometry" />
        </mxCell>
        <mxCell id="GLSSM8lwYj0UyMztoxBY-33" value="Request for bonus" style="whiteSpace=wrap;html=1;fontFamily=Times New Roman;" parent="1" vertex="1">
          <mxGeometry x="464.9" y="600" width="120" height="60" as="geometry" />
        </mxCell>
        <mxCell id="GLSSM8lwYj0UyMztoxBY-46" value="" style="edgeStyle=orthogonalEdgeStyle;rounded=0;orthogonalLoop=1;jettySize=auto;html=1;" parent="1" source="GLSSM8lwYj0UyMztoxBY-44" target="GLSSM8lwYj0UyMztoxBY-45" edge="1">
          <mxGeometry relative="1" as="geometry">
            <Array as="points">
              <mxPoint x="280" y="500" />
            </Array>
          </mxGeometry>
        </mxCell>
        <mxCell id="ozypkc_vYGgPimxKBf-H-5" style="edgeStyle=orthogonalEdgeStyle;rounded=0;orthogonalLoop=1;jettySize=auto;html=1;exitX=1;exitY=0.5;exitDx=0;exitDy=0;entryX=0.5;entryY=0;entryDx=0;entryDy=0;" edge="1" parent="1" source="GLSSM8lwYj0UyMztoxBY-44" target="ErSS763vBnddS_wtB-cu-2">
          <mxGeometry relative="1" as="geometry" />
        </mxCell>
        <mxCell id="ozypkc_vYGgPimxKBf-H-7" style="edgeStyle=orthogonalEdgeStyle;rounded=0;orthogonalLoop=1;jettySize=auto;html=1;exitX=0.5;exitY=1;exitDx=0;exitDy=0;" edge="1" parent="1" source="GLSSM8lwYj0UyMztoxBY-44" target="ozypkc_vYGgPimxKBf-H-6">
          <mxGeometry relative="1" as="geometry" />
        </mxCell>
        <mxCell id="GLSSM8lwYj0UyMztoxBY-44" value="Admin" style="rounded=0;whiteSpace=wrap;html=1;" parent="1" vertex="1">
          <mxGeometry x="349.9" y="450" width="120" height="60" as="geometry" />
        </mxCell>
        <mxCell id="GLSSM8lwYj0UyMztoxBY-45" value="Add/Remove&lt;br&gt;HR login" style="rounded=0;whiteSpace=wrap;html=1;" parent="1" vertex="1">
          <mxGeometry x="200" y="490" width="120" height="60" as="geometry" />
        </mxCell>
        <mxCell id="ErSS763vBnddS_wtB-cu-1" value="Employee Management" style="rounded=0;whiteSpace=wrap;html=1;" parent="1" vertex="1">
          <mxGeometry x="-60" y="420" width="120" height="60" as="geometry" />
        </mxCell>
        <mxCell id="ErSS763vBnddS_wtB-cu-11" style="edgeStyle=orthogonalEdgeStyle;rounded=0;orthogonalLoop=1;jettySize=auto;html=1;entryX=0;entryY=0.5;entryDx=0;entryDy=0;" parent="1" source="ErSS763vBnddS_wtB-cu-2" target="EQr21W7R5ZVl4X3dIZeW-17" edge="1">
          <mxGeometry relative="1" as="geometry">
            <Array as="points">
              <mxPoint x="560" y="450" />
            </Array>
          </mxGeometry>
        </mxCell>
        <mxCell id="ErSS763vBnddS_wtB-cu-12" style="edgeStyle=orthogonalEdgeStyle;rounded=0;orthogonalLoop=1;jettySize=auto;html=1;entryX=0.5;entryY=0;entryDx=0;entryDy=0;" parent="1" source="ErSS763vBnddS_wtB-cu-2" target="EQr21W7R5ZVl4X3dIZeW-21" edge="1">
          <mxGeometry relative="1" as="geometry">
            <Array as="points">
              <mxPoint x="410" y="590" />
              <mxPoint x="410" y="640" />
              <mxPoint x="-210" y="640" />
              <mxPoint x="-210" y="305" />
              <mxPoint x="270" y="305" />
            </Array>
          </mxGeometry>
        </mxCell>
        <mxCell id="ErSS763vBnddS_wtB-cu-13" style="edgeStyle=orthogonalEdgeStyle;rounded=0;orthogonalLoop=1;jettySize=auto;html=1;entryX=0.5;entryY=0;entryDx=0;entryDy=0;" parent="1" source="ErSS763vBnddS_wtB-cu-2" target="EQr21W7R5ZVl4X3dIZeW-19" edge="1">
          <mxGeometry relative="1" as="geometry">
            <Array as="points">
              <mxPoint x="410" y="590" />
              <mxPoint x="410" y="780" />
              <mxPoint x="1030" y="780" />
              <mxPoint x="1030" y="290" />
              <mxPoint x="550" y="290" />
            </Array>
          </mxGeometry>
        </mxCell>
        <mxCell id="ErSS763vBnddS_wtB-cu-2" value="Login as other roles" style="whiteSpace=wrap;html=1;rounded=0;" parent="1" vertex="1">
          <mxGeometry x="450" y="530" width="120" height="60" as="geometry" />
        </mxCell>
        <mxCell id="ErSS763vBnddS_wtB-cu-6" value="" style="endArrow=classic;html=1;rounded=0;entryX=0;entryY=0.5;entryDx=0;entryDy=0;exitX=1;exitY=0.5;exitDx=0;exitDy=0;" parent="1" source="GLSSM8lwYj0UyMztoxBY-5" target="GLSSM8lwYj0UyMztoxBY-25" edge="1">
          <mxGeometry width="50" height="50" relative="1" as="geometry">
            <mxPoint x="865" y="360" as="sourcePoint" />
            <mxPoint x="915" y="310" as="targetPoint" />
          </mxGeometry>
        </mxCell>
        <mxCell id="ErSS763vBnddS_wtB-cu-15" value="Profile" style="rounded=0;whiteSpace=wrap;html=1;" parent="1" vertex="1">
          <mxGeometry x="-70" y="320" width="120" height="60" as="geometry" />
        </mxCell>
        <mxCell id="ErSS763vBnddS_wtB-cu-16" value="Profile" style="rounded=0;whiteSpace=wrap;html=1;" parent="1" vertex="1">
          <mxGeometry x="905" y="420" width="120" height="60" as="geometry" />
        </mxCell>
        <mxCell id="ErSS763vBnddS_wtB-cu-18" value="Profile" style="rounded=0;whiteSpace=wrap;html=1;" parent="1" vertex="1">
          <mxGeometry x="740" y="700" width="120" height="60" as="geometry" />
        </mxCell>
        <mxCell id="ozypkc_vYGgPimxKBf-H-1" value="Apply for resignation" style="whiteSpace=wrap;html=1;fontFamily=Times New Roman;" vertex="1" parent="1">
          <mxGeometry x="420" y="700" width="120" height="60" as="geometry" />
        </mxCell>
        <mxCell id="ozypkc_vYGgPimxKBf-H-3" value="Submit Performance Review" style="whiteSpace=wrap;html=1;fontFamily=Times New Roman;" vertex="1" parent="1">
          <mxGeometry x="740" y="520" width="120" height="60" as="geometry" />
        </mxCell>
        <mxCell id="ozypkc_vYGgPimxKBf-H-6" value="Approve Resignation" style="whiteSpace=wrap;html=1;fontFamily=Times New Roman;" vertex="1" parent="1">
          <mxGeometry x="270" y="570" width="120" height="60" as="geometry" />
        </mxCell>
        <mxCell id="ozypkc_vYGgPimxKBf-H-8" value="Apply for resignation" style="rounded=0;whiteSpace=wrap;html=1;" vertex="1" parent="1">
          <mxGeometry x="-190" y="520" width="120" height="60" as="geometry" />
        </mxCell>
        <mxCell id="ozypkc_vYGgPimxKBf-H-9" value="Review Complaints" style="rounded=0;whiteSpace=wrap;html=1;" vertex="1" parent="1">
          <mxGeometry x="-200" y="320" width="120" height="60" as="geometry" />
        </mxCell>
      </root>
    </mxGraphModel>
  </diagram>
</mxfile>
